<svg xmlns="http://www.w3.org/2000/svg" width="25" height="24" viewBox="0 0 25 24">
    <g fill="none" fill-rule="nonzero">
        <path fill="#CCC" fill-opacity="0" d="M.154 0h24v24h-24z"/>
        <path fill="#0152CC" d="M13.138 8.823a.814.814 0 0 0-.118 1.146c.286.342.8.375 1.15.083l3.05-2.56a.814.814 0 0 0 .118-1.146l-2.306-2.748a.814.814 0 0 0-1.15-.083.815.815 0 0 0-.118 1.146l.787.939c-2.255-.551-4.666-.071-6.431 1.41-2.96 2.484-3.437 6.812-1.057 9.649 2.428 2.893 6.933 3.236 9.696.624 1.958-1.85 2.578-3.837 2.18-6.502-.07-.47-.614-.686-1.058-.509-.39.15-.546.526-.51.984.172 2.16-.211 3.352-1.671 4.824-2.007 2.025-5.502 1.74-7.37-.485-1.808-2.156-1.444-5.456.82-7.356 1.472-1.235 3.501-1.452 5.625-.79l-1.637 1.374z"/>
    </g>
</svg>
