<svg xmlns="http://www.w3.org/2000/svg" xmlns:xlink="http://www.w3.org/1999/xlink" width="25" height="25" viewBox="0 0 25 25">
    <defs>
        <path id="a" d="M0 .725h5.448v14.436H0z"/>
        <linearGradient id="b" x1="49.985%" x2="49.985%" y1="77.078%" y2="12.694%">
            <stop offset="0%" stop-color="#AAA"/>
            <stop offset="100%" stop-color="#999"/>
        </linearGradient>
    </defs>
    <g fill="none" fill-rule="evenodd">
        <g transform="translate(5 4.5)">
            <mask id="c" fill="#fff">
                <use xlink:href="#a"/>
            </mask>
            <path fill="url(#b)" fill-rule="nonzero" d="M0 .725h5.448v14.436H0z" mask="url(#c)"/>
        </g>
        <path fill="#AAA" fill-rule="nonzero" d="M21.586 10.998a2.724 2.724 0 0 0-3.754-.866L6.281 17.35a2.725 2.725 0 1 0 2.888 4.619l11.551-7.217a2.726 2.726 0 0 0 .866-3.754"/>
        <path fill="#AAA" fill-rule="nonzero" d="M20.72 10.132L9.169 2.914a2.724 2.724 0 1 0-2.888 4.62l11.551 7.218a2.725 2.725 0 0 0 2.888-4.62"/>
    </g>
</svg>
