<svg xmlns="http://www.w3.org/2000/svg" width="36" height="36" viewBox="0 0 36 36">
    <path fill="#666" fill-rule="evenodd" d="M28.763 13.534c0-.267-.135-.401-.404-.401a.95.95 0 0 0-.285.042c-.016.005-.028.003-.038-.005a.053.053 0 0 1-.014-.04l.012-.755c0-.033.003-.053.008-.059.005-.005.021-.008.051-.008h.716c.02 0 .028.011.028.034v.077c0 .023-.008.034-.028.034h-.632a35.679 35.679 0 0 0-.01.582.627.627 0 0 1 .249-.044.48.48 0 0 1 .355.135c.09.093.136.218.136.375 0 .191-.052.339-.157.443-.1.1-.238.15-.412.15a.962.962 0 0 1-.163-.013.714.714 0 0 1-.143-.04.043.043 0 0 1-.029-.042v-.1c0-.027.01-.035.029-.024a.59.59 0 0 0 .306.074.436.436 0 0 0 .3-.102c.083-.073.125-.177.125-.313zm-7.683.51v-1.542l-.122.117-.119.116c-.014.014-.029.013-.042-.005l-.042-.057a.055.055 0 0 1-.006-.025c0-.008.004-.016.01-.022l.325-.308a.03.03 0 0 1 .025-.01h.057c.03 0 .047.003.052.008.004.006.006.026.006.059v1.669c0 .022-.01.033-.029.033h-.086c-.019 0-.029-.011-.029-.033zm-7.685-.854c0-.496.12-.744.36-.744s.36.248.36.744c0 .498-.12.747-.36.747s-.36-.25-.36-.747zm.871 0c0-.126-.009-.24-.025-.339a1.195 1.195 0 0 0-.074-.265c-.086-.195-.223-.292-.412-.292-.19 0-.33.097-.414.292-.067.154-.1.356-.1.604 0 .598.171.896.514.896.34 0 .511-.298.511-.896zm-8 .287c.258-.315.386-.553.386-.716a.347.347 0 0 0-.083-.237.26.26 0 0 0-.203-.092.708.708 0 0 0-.355.106c-.018.01-.03.006-.033-.014l-.013-.078c-.003-.027.003-.044.022-.05.07-.036.135-.063.192-.081a.603.603 0 0 1 .176-.026c.134 0 .24.038.32.114.09.082.134.2.134.351a.57.57 0 0 1-.037.192c-.026.07-.06.142-.105.218a4 4 0 0 1-.294.4c-.049.06-.096.121-.144.183a12.5 12.5 0 0 1-.146.183h.733c.019 0 .029.01.029.033v.08c0 .023-.01.034-.03.034h-.853a.37.37 0 0 1-.035-.002c-.008 0-.014-.003-.017-.006a.041.041 0 0 1-.006-.02.472.472 0 0 1-.001-.039l.002-.052c0-.02.005-.037.016-.05l.346-.431zm20.357 6.143l1.197-3.494 1.117 3.494h-2.314zm2.492 2.96h2.188v-.326l-.748-.213-2.212-6.69-.003-.009h-.752L25.23 22.02l-.677.215v.346h1.872v-.347l-.64-.192.656-1.91h2.646l.596 1.91-.568.213v.326zm-9.073-.375l.612-.214-.232-5.463-2.595 6.053h-.373l-.003-.008-2.368-6.022-.282 5.42.724.233v.377h-1.964v-.376l.008-.003.666-.231.295-6.151-.458-.183v-.295h1.358l.002.008 2.296 5.976 2.523-5.984h1.387v.326l-.5.183.276 6.14.673.213v.377h-2.045v-.376zm-10.193.372l-2.789-3.49v-.455l.003-.003 2.378-2.792-.463-.19v-.305h1.76v.377l-.294.095c-.194.073-.359.176-.49.306l-.423.422-1.83 2.156 2.604 3.311.76.195v.377H9.852l-.003-.004zm-3.779-.526v-6.19l-.581-.182v-.337h1.963v.337l-.612.183v6.19l.684.182v.347H5.417v-.347l.653-.183zm25.641 3.543a.892.892 0 0 1 .296.045c.022.006.03.02.027.038l-.018.086c-.004.026-.017.032-.037.02a.468.468 0 0 0-.121-.038.85.85 0 0 0-.15-.01.544.544 0 0 0-.138.017.325.325 0 0 0-.112.054.254.254 0 0 0-.104.213c0 .039.011.074.037.108a.513.513 0 0 0 .095.094c.038.03.079.056.122.08l.118.068c.049.028.096.056.141.085.046.03.087.063.122.1a.526.526 0 0 1 .087.12.412.412 0 0 1-.013.348.472.472 0 0 1-.294.236.63.63 0 0 1-.204.033.974.974 0 0 1-.345-.057c-.024-.007-.033-.02-.029-.04l.009-.101c.003-.012.008-.02.014-.024.007-.005.015-.003.024.002a.638.638 0 0 0 .335.08.39.39 0 0 0 .265-.09.309.309 0 0 0 .103-.247.206.206 0 0 0-.05-.128.527.527 0 0 0-.138-.12 3.111 3.111 0 0 0-.175-.102 1.871 1.871 0 0 1-.186-.116.692.692 0 0 1-.148-.14.298.298 0 0 1-.06-.182.378.378 0 0 1 .163-.321.54.54 0 0 1 .169-.082.688.688 0 0 1 .195-.03zm-1.647 1.523h-.136v-1.354h.24c.2 0 .357.05.472.148.13.111.195.284.195.517 0 .46-.257.69-.771.69zm.11-1.49h-.347c-.031 0-.05.003-.055.008-.004.004-.007.023-.007.054v1.505c0 .031.003.05.007.054.006.005.024.008.055.008h.227c.144 0 .272-.016.385-.049a.868.868 0 0 0 .29-.138.72.72 0 0 0 .196-.266.91.91 0 0 0 .072-.366c0-.25-.064-.444-.19-.584-.142-.15-.352-.226-.633-.226zm-1.074.77a.586.586 0 0 1-.167.022h-.232v-.656h.228a.91.91 0 0 1 .2.018.3.3 0 0 1 .128.058.222.222 0 0 1 .07.105c.015.044.022.096.022.158a.278.278 0 0 1-.117.231.388.388 0 0 1-.132.064zm.13.1a.574.574 0 0 0 .199-.16.438.438 0 0 0 .063-.109.352.352 0 0 0 .023-.126.613.613 0 0 0-.03-.195.384.384 0 0 0-.243-.246.64.64 0 0 0-.218-.034H28.568c-.008.002-.015.004-.02.009-.004.004-.006.01-.007.02l-.002.037v1.532c0 .02.011.031.031.031h.1c.02 0 .031-.01.031-.03v-.668h.186l.11-.004a.534.534 0 0 0 .093-.014l.071.14.104.208c.044.087.1.2.166.337a.05.05 0 0 0 .049.031h.114c.01 0 .015-.003.018-.01a.022.022 0 0 0 0-.02l-.383-.73zm-1.944.183l.182-.453.183-.452c.062.152.12.303.178.452.057.149.116.3.178.453h-.721zm.48-1.031a.039.039 0 0 0-.04-.026h-.135a.041.041 0 0 0-.04.026l-.65 1.576c-.008.02 0 .031.02.031h.104a.06.06 0 0 0 .023-.004c.007-.004.013-.012.02-.027l.079-.203.081-.202h.832l.163.405c.007.015.013.023.019.027a.06.06 0 0 0 .024.004h.106c.02 0 .027-.01.019-.03l-.626-1.577zm-.67.009l-.46 1.576c-.005.014-.015.022-.03.022h-.147c-.016 0-.026-.008-.029-.022l-.413-1.431c-.071.24-.142.477-.21.714l-.21.717c-.005.014-.015.022-.03.022h-.152c-.016 0-.026-.008-.028-.022l-.453-1.576c-.003-.008-.003-.015.002-.021.003-.006.01-.01.02-.01h.103c.02 0 .034.01.04.03l.398 1.432.208-.71c.07-.233.138-.47.208-.71.003-.015.01-.026.02-.032a.07.07 0 0 1 .035-.01h.115c.025 0 .041.014.049.042l.404 1.41.201-.71.204-.711a.05.05 0 0 1 .015-.022.04.04 0 0 1 .025-.009h.092c.01 0 .016.004.02.01.005.006.006.013.003.02zm-3.098 1.022a121.414 121.414 0 0 0 .365-.905c.062.152.121.303.178.452.056.149.116.3.178.453h-.721zm.48-1.031a.04.04 0 0 0-.04-.026h-.135c-.02 0-.033.008-.04.026l-.65 1.576c-.007.02 0 .031.02.031h.104a.057.057 0 0 0 .023-.004c.007-.004.013-.012.019-.027l.079-.203.083-.202h.83l.165.405c.005.015.011.023.018.027a.055.055 0 0 0 .024.004h.106c.02 0 .027-.01.02-.03l-.626-1.577zm-1.522.734c.004.006.007.023.007.054v.698c0 .016-.005.03-.014.041a.098.098 0 0 1-.032.027 1.314 1.314 0 0 1-.465.081 1.01 1.01 0 0 1-.34-.055.734.734 0 0 1-.445-.428.982.982 0 0 1-.061-.36c0-.123.018-.236.058-.339a.745.745 0 0 1 .434-.441.951.951 0 0 1 .354-.063c.083 0 .155.004.216.011.061.007.126.022.196.044.022.006.03.02.026.045l-.011.08c-.002.02-.013.026-.033.02a.881.881 0 0 0-.19-.049 1.448 1.448 0 0 0-.204-.013.746.746 0 0 0-.284.053.611.611 0 0 0-.353.366.83.83 0 0 0-.049.286c0 .113.018.214.051.302a.604.604 0 0 0 .36.357.778.778 0 0 0 .275.045c.164 0 .28-.019.35-.059v-.572h-.445c-.02 0-.03-.01-.03-.031v-.077c0-.02.01-.03.03-.03h.544c.031 0 .049.002.055.007zm-1.58-.73v1.541c0 .031-.004.05-.009.054-.005.005-.023.008-.054.008h-.134c-.012 0-.021-.001-.025-.004a.066.066 0 0 1-.02-.023l-.814-1.4v1.396c0 .02-.01.031-.031.031h-.099c-.02 0-.03-.01-.03-.03v-1.542c0-.031.002-.048.007-.053.005-.006.023-.008.054-.008h.102c.02 0 .031.001.039.005a.071.071 0 0 1 .02.025l.834 1.425v-1.425c0-.02.01-.03.031-.03h.097c.021 0 .031.01.031.03zm-1.45.005v1.567c0 .02-.012.031-.032.031h-.106c-.021 0-.031-.01-.031-.03v-1.568c0-.02.01-.031.03-.031h.107c.02 0 .031.01.031.03zm-.258 0v.074c0 .021-.01.031-.03.031h-.46v1.462c0 .02-.01.031-.031.031h-.102c-.02 0-.031-.01-.031-.03v-1.463h-.456c-.02 0-.031-.01-.031-.03v-.075c0-.02.01-.031.031-.031h1.08c.02 0 .03.01.03.03zm-1.251 1.6h-.79c-.03 0-.049-.002-.054-.007-.005-.005-.008-.023-.008-.054V25.68c0-.028.003-.044.008-.05.005-.005.022-.007.05-.007h.767c.021 0 .031.01.031.03v.077c0 .02-.01.03-.03.03h-.665v.583h.631c.021 0 .031.01.031.03v.08c0 .02-.01.03-.03.03h-.632v.634h.69c.021 0 .032.01.032.03v.08c0 .021-.011.031-.031.031zm-1.011-.033c.014.02.01.031-.009.031h-.12a.1.1 0 0 1-.039-.007.057.057 0 0 1-.029-.024l-.53-.779-.217.253v.526c0 .02-.01.031-.03.031h-.098c-.021 0-.031-.01-.031-.03v-1.568c0-.02.01-.031.03-.031h.098c.02 0 .031.01.031.03v.84l.683-.84a.104.104 0 0 1 .075-.03h.124c.009 0 .014.004.017.01.002.006 0 .013-.008.02l-.57.668.623.9zm-1.803-.828a.586.586 0 0 1-.167.022h-.232v-.656h.227a.91.91 0 0 1 .2.018.303.303 0 0 1 .13.058.222.222 0 0 1 .07.105.53.53 0 0 1 .02.158.278.278 0 0 1-.117.231.39.39 0 0 1-.13.064zm.129.1a.569.569 0 0 0 .2-.16.415.415 0 0 0 .062-.109.337.337 0 0 0 .023-.126.594.594 0 0 0-.03-.195.376.376 0 0 0-.09-.15.408.408 0 0 0-.153-.096.636.636 0 0 0-.217-.034H15.07c-.009.002-.016.004-.02.009-.004.004-.007.01-.007.02-.002.008-.002.02-.002.037v1.532c0 .02.01.031.031.031h.1c.02 0 .03-.01.03-.03v-.668h.186l.11-.004a.532.532 0 0 0 .094-.014l.07.14.105.208c.044.087.1.2.166.337.01.02.026.031.048.031h.115c.009 0 .014-.003.018-.01a.026.026 0 0 0 0-.02l-.383-.73zm-1.943.183l.182-.453.182-.452c.062.152.122.303.179.452.056.149.116.3.177.453h-.72zm.48-1.031a.04.04 0 0 0-.04-.026h-.136a.04.04 0 0 0-.04.026l-.65 1.576c-.007.02 0 .031.02.031h.104a.06.06 0 0 0 .024-.004c.007-.004.013-.012.018-.027l.08-.203.082-.202h.832l.163.405c.006.015.012.023.019.027a.057.057 0 0 0 .023.004h.106c.02 0 .028-.01.02-.03l-.626-1.577zm-1.039-.018c.006.005.008.022.008.053v1.541c0 .02-.01.031-.031.031h-.1c-.02 0-.03-.01-.03-.03v-1.46l-.295.724-.108.267-.095.234-.068.166a.954.954 0 0 0-.027.066c-.008.015-.019.022-.033.022h-.1c-.01 0-.017-.002-.022-.005-.005-.005-.008-.01-.011-.017l-.61-1.458v1.46c0 .02-.01.031-.031.031h-.1c-.02 0-.031-.01-.031-.03v-1.542c0-.031.003-.048.008-.053.005-.006.023-.008.055-.008h.165c.012 0 .02.001.025.004.005.003.01.01.015.022l.588 1.424.57-1.427c.007-.015.018-.023.036-.023h.168c.031 0 .049.002.054.008zM9.817 26.68l.182-.453c.06-.15.12-.3.183-.452.062.152.121.303.178.452.057.149.116.3.178.453h-.72zm.48-1.031a.04.04 0 0 0-.04-.026h-.135c-.019 0-.033.008-.04.026l-.65 1.576c-.007.02 0 .031.02.031h.104c.01 0 .017-.001.024-.004.006-.004.013-.012.018-.027.026-.069.054-.136.08-.203l.082-.202h.831l.164.405c.005.015.012.023.018.027a.057.057 0 0 0 .023.004h.107c.02 0 .027-.01.02-.03l-.626-1.577zm-.964 1.499v.08c0 .02-.01.03-.031.03h-.79c-.03 0-.048-.002-.053-.007-.006-.005-.008-.023-.008-.054V25.68c0-.028.002-.044.008-.05.005-.005.021-.007.05-.007h.767c.02 0 .03.01.03.03v.077c0 .02-.01.03-.03.03h-.664v.583h.63c.02 0 .03.01.03.03v.08c0 .02-.01.03-.03.03h-.63v.634h.69c.02 0 .03.01.03.03zm-1.56-.75a.586.586 0 0 1-.167.021h-.232v-.656H7.6c.08 0 .147.006.2.018a.303.303 0 0 1 .13.058.222.222 0 0 1 .07.105.53.53 0 0 1 .02.158.278.278 0 0 1-.117.231.39.39 0 0 1-.13.064zm.129.099a.569.569 0 0 0 .2-.16.415.415 0 0 0 .062-.109.337.337 0 0 0 .023-.126.594.594 0 0 0-.03-.195.376.376 0 0 0-.09-.15.408.408 0 0 0-.153-.096.636.636 0 0 0-.217-.034H7.24c-.009.002-.016.004-.02.009-.004.004-.007.01-.007.02-.002.008-.002.02-.002.037v1.532c0 .02.01.031.031.031h.1c.02 0 .03-.01.03-.03v-.668h.186l.11-.004a.532.532 0 0 0 .094-.014l.07.14.105.208c.044.087.1.2.166.337.01.02.026.031.048.031h.115c.009 0 .015-.003.018-.01a.026.026 0 0 0 0-.02l-.383-.73zm-1.123.208a.839.839 0 0 1-.1.223.556.556 0 0 1-.185.166.497.497 0 0 1-.242.059.485.485 0 0 1-.24-.06.591.591 0 0 1-.189-.165.839.839 0 0 1-.099-.223.951.951 0 0 1-.035-.264c0-.092.011-.179.035-.262a.855.855 0 0 1 .1-.222.51.51 0 0 1 .43-.225.505.505 0 0 1 .425.225c.043.067.076.14.1.222.024.083.035.17.035.262 0 .093-.011.181-.035.264zm.024-.854a.66.66 0 0 0-.238-.19.704.704 0 0 0-.313-.067.695.695 0 0 0-.553.255.875.875 0 0 0-.128.263c-.03.097-.044.208-.044.33 0 .256.06.46.181.611.13.159.312.238.544.238.234 0 .414-.08.543-.238.117-.147.177-.35.18-.612a1.05 1.05 0 0 0-.041-.324.895.895 0 0 0-.13-.266zm-1.362 1.374c.013.02.01.031-.009.031h-.12a.106.106 0 0 1-.04-.007.056.056 0 0 1-.028-.024l-.53-.779-.217.253v.526c0 .02-.01.031-.032.031H4.37c-.02 0-.031-.01-.031-.03v-1.568c0-.02.01-.031.031-.031h.096c.021 0 .032.01.032.03v.84l.683-.84a.103.103 0 0 1 .075-.03h.124c.009 0 .015.004.017.01.002.006-.001.013-.008.02l-.57.668.623.9zM29.814 9.54l.182-.453c.062.152.122.304.178.453.057.149.116.3.178.452h-.721l.183-.452zm-.548 1.028h.104a.057.057 0 0 0 .023-.004c.007-.003.014-.011.019-.027l.08-.202.081-.202h.832l.164.404c.006.016.012.024.019.027a.057.057 0 0 0 .023.004h.106c.02 0 .027-.01.02-.03L30.11 8.96c-.008-.017-.02-.026-.04-.026h-.135a.04.04 0 0 0-.04.026l-.65 1.576c-.007.021 0 .031.02.031zm-1.347-.005c-.006-.005-.008-.023-.008-.054V8.99c0-.028.002-.044.008-.05.005-.004.021-.007.049-.007h.768c.02 0 .03.01.03.03v.078c0 .02-.01.03-.03.03h-.664v.582h.63c.021 0 .032.01.032.03v.08c0 .02-.011.03-.032.03h-.63v.635h.69c.02 0 .03.01.03.03v.08c0 .02-.01.03-.03.03h-.79c-.03 0-.048-.002-.053-.007zM26.48 9.075h.228a.91.91 0 0 1 .2.018.303.303 0 0 1 .129.058.22.22 0 0 1 .07.105c.014.044.02.096.02.158a.273.273 0 0 1-.116.231.405.405 0 0 1-.131.064.622.622 0 0 1-.168.022h-.232v-.656zm-.13 1.492h.1c.02 0 .03-.01.03-.03V9.87h.186l.11-.005a.6.6 0 0 0 .093-.013l.071.139.104.208c.045.087.1.2.166.337a.05.05 0 0 0 .048.031h.115c.01 0 .015-.003.019-.01a.026.026 0 0 0 0-.02l-.383-.73a.551.551 0 0 0 .2-.158.463.463 0 0 0 .062-.11.348.348 0 0 0 .023-.125.618.618 0 0 0-.03-.196.39.39 0 0 0-.243-.245.617.617 0 0 0-.218-.034H26.348a.032.032 0 0 0-.02.008.03.03 0 0 0-.008.02.46.46 0 0 0-.002.037v1.532c0 .021.011.031.031.031zm-1.873-1.076a.8.8 0 0 1 .1-.222.501.501 0 0 1 .428-.225.5.5 0 0 1 .427.225c.043.066.075.14.1.222a.964.964 0 0 1-.1.748.5.5 0 0 1-.427.225.494.494 0 0 1-.241-.06.6.6 0 0 1-.188-.165.786.786 0 0 1-.099-.223.95.95 0 0 1 0-.525zm.528 1.112c.232 0 .413-.08.542-.238.117-.147.178-.35.181-.612a1.072 1.072 0 0 0-.041-.325.889.889 0 0 0-.131-.265.668.668 0 0 0-.551-.257.686.686 0 0 0-.552.255.855.855 0 0 0-.129.262 1.15 1.15 0 0 0-.044.33c0 .256.06.46.181.612.13.159.311.238.544.238zm-2.268-.067V8.97c0-.02.01-.03.03-.03h.098c.02 0 .031.01.031.03v.839l.683-.839c.02-.02.046-.03.075-.03h.124c.009 0 .014.003.017.01.002.006 0 .013-.008.02l-.57.667.623.9c.014.021.01.031-.01.031h-.119a.113.113 0 0 1-.039-.006.05.05 0 0 1-.029-.025l-.531-.779-.216.253v.526c0 .021-.01.031-.031.031h-.097c-.021 0-.031-.01-.031-.03zm-2.218 0V9.002c0-.032.002-.051.007-.056.006-.005.024-.007.057-.007h.738c.02 0 .031.01.031.03v.075c0 .02-.01.03-.03.03h-.64v.584h.608c.02 0 .031.01.031.031v.08c0 .02-.01.03-.03.03h-.609v.737c0 .021-.01.031-.031.031h-.101c-.021 0-.031-.01-.031-.03zm-1.816-1.045a.822.822 0 0 1 .1-.222.504.504 0 0 1 .43-.225.497.497 0 0 1 .425.225c.043.066.076.14.1.222a.964.964 0 0 1-.1.748.497.497 0 0 1-.426.225.493.493 0 0 1-.241-.06.579.579 0 0 1-.188-.165.807.807 0 0 1-.1-.223.95.95 0 0 1 0-.525zm.529 1.112c.232 0 .413-.08.541-.238.118-.147.179-.35.182-.612a1.095 1.095 0 0 0-.042-.325.889.889 0 0 0-.131-.265.662.662 0 0 0-.55-.257.693.693 0 0 0-.553.255.855.855 0 0 0-.128.262 1.15 1.15 0 0 0-.045.33c0 .256.06.46.182.612.13.159.31.238.544.238zm-2.98-.04c-.005-.006-.008-.024-.008-.055V8.99c0-.028.003-.044.008-.05.005-.004.021-.007.05-.007h.767c.02 0 .031.01.031.03v.078c0 .02-.01.03-.031.03h-.663v.582h.63c.02 0 .03.01.03.03v.08c0 .02-.01.03-.03.03h-.63v.635h.69c.02 0 .03.01.03.03v.08c0 .02-.01.03-.03.03h-.79c-.031 0-.05-.002-.054-.007zm-1.686-1.488h.239c.2 0 .358.049.473.147.13.112.195.284.195.517 0 .46-.257.69-.772.69h-.135V9.075zm-.102 1.492h.228c.143 0 .271-.015.385-.048a.866.866 0 0 0 .29-.139c.083-.07.149-.159.196-.266a.89.89 0 0 0 .071-.365c0-.25-.063-.444-.19-.583-.142-.152-.353-.227-.632-.227h-.348c-.03 0-.049.002-.054.007-.005.005-.008.023-.008.054v1.506c0 .03.003.048.008.054.005.005.023.007.054.007zm-.826-.03V8.968c0-.02.01-.03.03-.03h.106c.021 0 .031.01.031.03v1.567c0 .021-.01.031-.03.031h-.107c-.02 0-.03-.01-.03-.03zm-1.41-1.462h.229c.079 0 .145.006.198.018a.3.3 0 0 1 .13.058.22.22 0 0 1 .07.105.53.53 0 0 1 .021.158c0 .048-.01.092-.03.131a.301.301 0 0 1-.087.1.401.401 0 0 1-.132.064.604.604 0 0 1-.166.022h-.233v-.656zm-.13 1.492h.1c.02 0 .03-.01.03-.03V9.87h.186l.11-.005a.608.608 0 0 0 .094-.013l.07.139.104.208c.045.087.1.2.167.337a.05.05 0 0 0 .048.031h.115c.009 0 .014-.003.018-.01a.026.026 0 0 0 0-.02l-.382-.73a.569.569 0 0 0 .198-.158.44.44 0 0 0 .063-.11.334.334 0 0 0 .024-.125.598.598 0 0 0-.03-.196.39.39 0 0 0-.244-.245.616.616 0 0 0-.217-.034H12.096a.034.034 0 0 0-.02.008.03.03 0 0 0-.008.02v1.569c0 .021.01.031.03.031zm-1.37-1.494h.331c.106 0 .186.028.241.084a.337.337 0 0 1 .082.241.434.434 0 0 1-.042.176.258.258 0 0 1-.096.1.392.392 0 0 1-.147.046c-.056.007-.12.01-.19.01h-.18v-.657zm-.131 1.494h.1c.02 0 .03-.01.03-.03V9.87h.281a.626.626 0 0 0 .212-.027.487.487 0 0 0 .173-.091.414.414 0 0 0 .114-.15.492.492 0 0 0 .04-.204c0-.151-.046-.266-.14-.348a.573.573 0 0 0-.38-.116h-.395c-.03 0-.05.003-.056.01-.007.005-.01.024-.01.056v1.536c0 .021.01.031.031.031zm-2.359-.005c-.005-.005-.008-.023-.008-.054V8.99c0-.028.003-.044.008-.05.005-.004.022-.007.05-.007h.767c.021 0 .031.01.031.03v.078c0 .02-.01.03-.03.03h-.664v.582h.63c.021 0 .031.01.031.03v.08c0 .02-.01.03-.03.03h-.63v.635h.69c.02 0 .03.01.03.03v.08c0 .02-.01.03-.03.03h-.79c-.032 0-.05-.002-.055-.007zm-1.831-.026V8.965c0-.021.01-.031.03-.031h.1c.02 0 .03.01.03.03v.692h.839v-.691c0-.021.01-.031.03-.031h.1c.021 0 .031.01.031.03v1.572c0 .021-.01.031-.03.031h-.1c-.021 0-.031-.01-.031-.03v-.742h-.838v.741c0 .021-.01.031-.031.031h-.1c-.02 0-.03-.01-.03-.03zm-1.61-1.492v-.075c0-.02.01-.03.03-.03h1.08c.02 0 .03.01.03.03v.075c0 .02-.01.03-.03.03h-.46v1.462c0 .021-.01.031-.031.031h-.102c-.02 0-.03-.01-.03-.03V9.074h-.456c-.021 0-.031-.01-.031-.031zM35.23 28.039l-17.115 7.907L.77 28.239V7.962L17.885.054 35.23 7.762v20.277zM17.894.004L17.884 0 .734 7.924.72 7.93v20.34l17.386 7.725.01.005 17.15-7.922.014-.007V7.73L17.894.004zm.13 29.719v2.938c0 .014-.01.026-.024.026a.026.026 0 0 1-.025-.026v-2.938c0-.013.011-.024.025-.024.014 0 .024.011.024.024zm-.05-23.066V3.72c0-.014.012-.025.026-.025.014 0 .024.011.024.025v2.938c0 .014-.01.025-.024.025a.025.025 0 0 1-.025-.025zM4.276 24.68h27.448v-.05H4.275v.05zm0-13.002h27.448v-.05H4.275v.05zM1.77 8.545l16.12-7.448 16.34 7.26v19.098L18.11 34.903l-16.34-7.26V8.546zm-.1-.063v19.226l16.419 7.294.02.01 16.191-7.48.029-.014V8.293L17.91.997 17.89.99 1.7 8.469l-.03.013z"/>
</svg>
