<svg xmlns="http://www.w3.org/2000/svg" width="48" height="36" viewBox="0 0 48 36">
    <path fill="#AAA" fill-rule="evenodd" d="M41.217 14.43c4.508-.225 6.574 3.201 4.615 7.653-1.957 4.453-7.2 8.243-11.707 8.467-1.482.075-2.695-.254-3.592-.876l-.008.017c-2.617-1.99-5.158-1.085-8.55.873-3.293 1.833-6.804 2.983-10.11 3.148-8.785.437-12.813-6.243-8.995-14.918C6.686 10.116 16.903 2.726 25.69 2.289c7.342-.367 11.358 4.24 10.251 10.83l.003-.002c-.005.017-.006.032-.012.05-.024.147-.055.297-.084.445-.245 1.974 1.907 1.423 3.848 1.02l-.003.007a9.771 9.771 0 0 1 1.524-.21zm-15.102 4.726l.424-.016c.187 0 .315-.108.41-.185.12-.1.185-.225.183-.353-.005-.27-.162-.424-.435-.424-.214 0-.519.13-.965.335-.459.209-.91.54-1.155.891-.234.336-.367.67-.362 1.008.01.33.088.708.307 1.29.221.59.393 1.124.41 1.488.01.206-.068.417-.176.524-.115.114-.325.171-.483.171a1.38 1.38 0 0 1-.68-.22.341.341 0 0 0-.218-.075c-.09 0-.268.029-.36.133-.094.103-.119.168-.116.311.006.348.335.525.978.525.284 0 .77-.053 1.054-.159.297-.11.524-.281.67-.51.15-.225.22-.468.215-.72-.005-.437-.191-1.065-.406-1.664-.2-.562-.309-1.066-.325-1.366-.013-.258.09-.463.268-.647a1.08 1.08 0 0 1 .762-.337zm13.405 3.769a.198.198 0 0 0-.159.083 2.924 2.924 0 0 1-.476.454c-.197.157-.457.254-.584.254-.03 0-.042-.087-.046-.136-.014-.18.039-.628.37-1.75.272-.91.612-1.807 1.017-2.67.086-.192.123-.34.115-.453a.595.595 0 0 0-.116-.294.376.376 0 0 0-.313-.176.346.346 0 0 0-.21.078c-.05.037-.115.114-.338.628-.154.35-.373.942-.656 1.757-.174.501-.316.951-.423 1.345a11.752 11.752 0 0 1-1.145 1.182c-.472.415-.658.46-.716.46h-.008c-.001-.001-.025-.022-.033-.117-.002-.014-.002-.03-.002-.05 0-.122.025-.36.123-.823.094-.439.21-.823.338-1.144.123-.265.145-.385.145-.457v-.025a.474.474 0 0 0-.142-.292c-.092-.095-.188-.143-.29-.143-.204 0-.35.225-.44.392a10.82 10.82 0 0 1-1.179 1.785c-.528.634-.743.703-.811.703h-.01c-.001-.002-.018-.02-.023-.092l-.001-.031c0-.1.028-.29.146-.665l.19-.588c-.001.003.013-.032.1-.115.072-.072.157-.204.26-.403.136-.263.16-.349.155-.41-.01-.118-.076-.22-.197-.307a.605.605 0 0 0-.35-.117c-.142 0-.272.1-.397.308-.105.172-.266.59-.489 1.274-.227.692-.326 1.17-.302 1.461.012.18.063.337.151.466.101.15.218.225.343.225.28 0 .654-.219 1.14-.668.34-.313.616-.606.83-.876-.017.098-.04.216-.04.216a3.257 3.257 0 0 0-.053.55c0 .05.002.1.005.147.043.546.3.661.51.661.204 0 .463-.096.793-.295.313-.191.697-.531 1.141-1.012 0-.002.004-.005.006-.006a2.82 2.82 0 0 0-.044.561c.016.206.07.38.161.515.132.194.292.236.401.236.434 0 .895-.397 1.247-.744.497-.49.486-.648.482-.708-.01-.12-.095-.174-.176-.174zm-11.662-.792a.786.786 0 0 1-.537.216c.027-.072.089-.205.225-.452.226-.41.348-.42.36-.42.023 0 .056.005.1.053a.3.3 0 0 1 .067.184v.028c0 .13-.07.257-.215.39zm3.435 1.039c-.25.412-.509.622-.769.622a.113.113 0 0 1-.093-.047.272.272 0 0 1-.061-.17c-.027-.34.105-.772.388-1.286.39-.701.564-.737.594-.737.066 0 .261 0 .303.538a.674.674 0 0 1 .003.065c0 .275-.122.615-.365 1.015zm1.18-1.04c-.04-.518-.253-.9-.633-1.138 0-.006-.01-.057-.01-.057-.019-.245-.176-.384-.432-.384a.475.475 0 0 0-.418.221c-.018.023-.044.05-.112.05a.493.493 0 0 0-.372.16.453.453 0 0 0-.133.354.337.337 0 0 1-.073.224 8.212 8.212 0 0 0-.365.59.3.3 0 0 0-.167.107c-.437.499-.868.88-1.283 1.134-.405.248-.764.374-1.065.374-.227 0-.33-.101-.35-.337a.578.578 0 0 1-.002-.05 1.386 1.386 0 0 1 .052-.352.516.516 0 0 0 .237.064c.435 0 .811-.162 1.12-.483.28-.293.421-.62.421-.973l-.002-.103a.696.696 0 0 0-.186-.438.596.596 0 0 0-.41-.187l-.012-.002c-.04-.171-.176-.27-.375-.27-.23 0-.485.184-.804.576-.293.36-.523.77-.683 1.22-.165.46-.234.822-.213 1.109.022.298.13.545.32.733.19.19.413.288.66.288.343 0 .735-.104 1.16-.311l.002-.002c.393-.19.78-.474 1.158-.845a1.863 1.863 0 0 0-.014.374.865.865 0 0 0 .256.544c.16.163.325.247.492.247.384 0 .78-.155 1.183-.46.398-.3.68-.65.84-1.04.145-.347.216-.632.216-.859 0-.027 0-.053-.004-.079zm-14.364-6.59c-1.074-.367-1.503-1.115-1.389-2.429a.59.59 0 0 0-.255-.557c-.223-.152-.552-.17-.817-.047a.66.66 0 0 0-.39.553c-.008.09-.011.179-.011.268 0 1.55 1.056 2.874 2.55 3.135.351.062.692-.102.762-.366.024-.088.06-.386-.45-.558zm10.93-6.59c-.323-.297-.9-.388-1.372-.215-.377.137-.618.421-.657.778-.515 4.558-2.963 6.109-4.76 6.88-.53.226-.706.614-.606.882.082.218.376.414.931.248 3.547-1.061 5.36-3.127 6.689-7.623.112-.378.031-.716-.225-.95zM21.161 22.02c-.071 0-.175.026-.27.151-.27.355-.557.61-.88.779-.272.141-.567.207-.933.207-.05 0-.095-.013-.113-.033-.02-.022-.018-.07-.014-.095.218-1.779.835-3.297 1.907-5.825a.888.888 0 0 0 .088-.421.749.749 0 0 0-.223-.49c-.143-.14-.27-.206-.402-.206-.594 0-1.072.327-1.283.876-1.018 2.676-1.228 3.63-1.472 5.749l-.018.128-.025.367c.024.313.153.616.386.905.25.308.523.465.81.465.389 0 .89-.19 1.34-.509.36-.251.636-.459.933-.847.433-.567.478-.783.467-.907-.017-.205-.162-.294-.298-.294zm.473-8.524a.643.643 0 0 0-.437-.274c-.449-.08-.898.177-1 .57a1.61 1.61 0 0 0-.016.107l-.002.025-.013.068c-.06.292-.142.694-.138 1.161a.485.485 0 0 0 .398.488c.217.038.439-.037.68-.23.309-.248.448-.598.584-1.116.09-.338.07-.606-.056-.799zm-4.628 6.22c-.008-.132-.112-.27-.328-.27l-.305.018h-.28l-.089-.001c.05-.22.124-.538.164-.657l.059-.137.132-.324.04-.127c.07-.224.134-.42.134-.605 0-.02 0-.04-.003-.059a.864.864 0 0 0-.21-.5c-.145-.166-.307-.248-.487-.248a.727.727 0 0 0-.599.319c-.158.212-.396 1.055-.463 1.353l-.098.396s-.105.418-.124.486l-.015.002h-3.242l.147-.45.505-1.537.691-1.888a1.253 1.253 0 0 0 .052-.477.909.909 0 0 0-.302-.625c-.18-.162-.363-.244-.542-.244-.21 0-.493.112-.655.641l-1.116 3.634c-.217.699-.293.919-.321.99l-.045.02c-.145.051-.298.13-.455.235-.077.05-.305.203-.305.43l.002.028c.015.19.158.341.4.459-.053.165-.264.972-.437 1.653-.17.664-.253 1.18-.253 1.567 0 .062.001.12.004.178.049.62.381.713.575.713.329 0 .638-.199.947-.608.284-.375.419-.656.419-.882 0-.014 0-.029-.003-.043a.567.567 0 0 0-.404-.522c.013-.088.055-.287.2-.724l.066-.206c.112-.341.298-.912.35-1.003.044-.071.07-.083.07-.083l3.373-.064c-.08.31-.238.992-.376 1.663-.259 1.237-.262 1.314-.264 1.355l.002.232c.052.66.33.801.556.801.336 0 .664-.32 1.03-1.001.408-.762.48-1.058.48-1.218 0-.015-.002-.027-.003-.04-.019-.244-.155-.363-.305-.404.02-.111.073-.364.205-.924l.1-.425.049-.207c.305-.032.512-.081.786-.19.23-.094.492-.227.492-.455l-.001-.025z"/>
</svg>
