<svg xmlns="http://www.w3.org/2000/svg" width="36" height="36" viewBox="0 0 36 36">
    <g fill="none" fill-rule="evenodd">
        <g opacity=".6">
            <path fill="#666" d="M31.106 17.922c0 7.232-5.863 13.094-13.094 13.094-7.231 0-13.094-5.862-13.094-13.094 0-7.232 5.863-13.094 13.094-13.094 7.231 0 13.094 5.862 13.094 13.094"/>
            <path fill="#666" d="M17.484 21.291v-2.348a.948.948 0 0 1 .456-1.78.95.95 0 0 1 .455 1.78v2.348h-.91zm-2.255-8.396c0-.453.514-.836 1.123-.836h3.5c.609 0 1.124.383 1.124.836v3.04h-5.747v-3.04zm8.547 3.04v-3.04c0-2.005-1.76-3.636-3.924-3.636h-3.5c-2.164 0-3.924 1.631-3.924 3.636v3.04h-1.164v7.459a2.621 2.621 0 0 0 2.622 2.621h8.077a2.622 2.622 0 0 0 2.622-2.621v-7.459h-.81z"/>
            <path fill="#FFF" d="M27.65 18.1c-3.22-3.876-6.557 1.375-12.582 2.92-5.936 1.525-8.583-2.253-7.861-5.872 1.044-4.176 4.446-7.561 8.958-8.363 6.124-1.089 11.971 2.993 13.06 9.117.44 2.47.036 4.897-1.002 6.983.372-1.492.473-3.525-.573-4.785" opacity=".27"/>
            <path fill="#CCC" d="M5.627 18c0-6.822 5.55-12.373 12.373-12.373 6.823 0 12.373 5.55 12.373 12.373 0 6.822-5.55 12.372-12.373 12.372-6.823 0-12.373-5.55-12.373-12.372M.72 18c0 9.528 7.752 17.28 17.28 17.28 9.528 0 17.28-7.752 17.28-17.28C35.28 8.472 27.528.72 18 .72 8.472.72.72 8.472.72 18"/>
            <path fill="#666" d="M33.505 16.226a.496.496 0 1 1-.991 0 .496.496 0 0 1 .991 0M3.796 16.226a.496.496 0 1 1-.991 0 .496.496 0 0 1 .991 0"/>
            <path fill="#FFF" d="M27.059 18.382c0 .447-.09.77-.268.97-.18.2-.466.301-.862.301h-3.37v-.896h2.876c.067 0 .128-.004.183-.011a.477.477 0 0 0 .154-.045.272.272 0 0 0 .115-.103.337.337 0 0 0 .042-.18.327.327 0 0 0-.059-.202.34.34 0 0 0-.154-.111.73.73 0 0 0-.198-.042 3.425 3.425 0 0 0-.249-.008l-.507-.02L23.94 18c-.11-.006-.215-.01-.314-.017a4.987 4.987 0 0 1-.251-.018c-.35-.02-.603-.15-.755-.384-.107-.177-.162-.439-.162-.787 0-.429.075-.75.224-.965.148-.215.395-.322.74-.322h3.5v.897h-2.878c-.063 0-.12.003-.17.01a.418.418 0 0 0-.143.045.268.268 0 0 0-.107.103.355.355 0 0 0-.04.18c0 .133.042.221.128.264a.822.822 0 0 0 .356.062h.195c.056.004.223.011.499.022.379.014.642.024.79.031l.373.018c.1.006.185.013.25.02.35.02.593.161.732.422.102.214.152.481.152.801zm-7.705 1.271h-.784l-1.376-3.017h-.015v3.017h-1.083v-4.146h1.819l1.03 2.416.015.021 1.034-2.437h1.814v4.146H20.73v-3.017h-.018l-1.358 3.017zm-3.855-1.27c0 .446-.09.77-.269.97-.178.2-.466.3-.862.3h-3.37v-.896h2.876c.067 0 .128-.004.183-.011a.486.486 0 0 0 .155-.045.275.275 0 0 0 .114-.103.337.337 0 0 0 .042-.18.323.323 0 0 0-.059-.202.338.338 0 0 0-.154-.111.742.742 0 0 0-.197-.042 3.44 3.44 0 0 0-.25-.008l-.508-.02L12.38 18c-.11-.006-.215-.01-.313-.017a5.086 5.086 0 0 1-.252-.018c-.352-.02-.603-.15-.755-.384-.108-.177-.161-.439-.161-.787 0-.429.074-.75.223-.965.148-.215.396-.322.741-.322h3.498v.897h-2.877c-.063 0-.12.003-.17.01a.423.423 0 0 0-.143.045.268.268 0 0 0-.107.103.356.356 0 0 0-.04.18c0 .133.043.221.128.264a.824.824 0 0 0 .357.062h.194c.057.004.223.011.498.022.38.014.644.024.791.031l.373.018c.1.006.185.013.251.02.349.02.592.161.732.422.101.214.152.481.152.801zm-6.387 1.27h1.164v-4.146H9.112v4.146zM28.256 20.814h.14v.087c.052-.066.112-.1.18-.1.038 0 .07.01.097.027a.188.188 0 0 1 .067.075.259.259 0 0 1 .082-.075.185.185 0 0 1 .095-.026c.043 0 .079.009.108.028.03.02.052.047.066.085.01.027.017.07.017.131v.41h-.155v-.366a.293.293 0 0 0-.015-.123.072.072 0 0 0-.066-.036.106.106 0 0 0-.061.021.137.137 0 0 0-.04.064.49.49 0 0 0-.013.133v.307h-.154v-.351a.573.573 0 0 0-.008-.12.07.07 0 0 0-.071-.054.105.105 0 0 0-.063.021.114.114 0 0 0-.04.06.516.516 0 0 0-.013.133v.311h-.153v-.642zm-.26.266c-.002-.049-.013-.085-.035-.11a.105.105 0 0 0-.082-.04.109.109 0 0 0-.085.042.161.161 0 0 0-.033.108h.235zm-.01.175l.151.03a.268.268 0 0 1-.093.14.257.257 0 0 1-.16.048c-.1 0-.175-.036-.224-.109a.4.4 0 0 1-.057-.222c0-.106.025-.19.075-.25a.24.24 0 0 1 .192-.09c.087 0 .155.03.205.094.05.063.074.16.072.29h-.388c.001.05.014.088.037.116a.114.114 0 0 0 .09.041.09.09 0 0 0 .062-.02.135.135 0 0 0 .038-.068zm-.44-.441v.135h-.106v.26c0 .053 0 .084.003.092a.039.039 0 0 0 .014.022.039.039 0 0 0 .025.009.185.185 0 0 0 .062-.017l.01.133a.278.278 0 0 1-.12.025.172.172 0 0 1-.073-.015.115.115 0 0 1-.05-.04.2.2 0 0 1-.02-.067.87.87 0 0 1-.005-.12v-.282h-.07v-.135h.07v-.127l.154-.1v.227h.105zm-.94.466l.156-.027c.008.033.02.058.04.075.02.017.047.025.083.025a.137.137 0 0 0 .088-.024.058.058 0 0 0 .02-.046.049.049 0 0 0-.012-.033c-.007-.008-.025-.015-.051-.023a.782.782 0 0 1-.235-.083.172.172 0 0 1-.07-.144.19.19 0 0 1 .06-.141c.04-.038.102-.057.185-.057.08 0 .139.014.176.043.039.027.066.07.08.125l-.144.03a.101.101 0 0 0-.034-.059.12.12 0 0 0-.075-.02c-.041 0-.07.007-.088.02a.04.04 0 0 0-.017.034.04.04 0 0 0 .015.032c.014.01.062.027.143.048.083.02.14.045.172.076.032.03.048.072.048.126 0 .06-.022.11-.067.152-.044.043-.11.064-.196.064a.295.295 0 0 1-.186-.052.243.243 0 0 1-.09-.141zm-.638-.466h.162l.137.456.133-.456h.16l-.203.617-.037.112a.557.557 0 0 1-.038.085.171.171 0 0 1-.042.048.152.152 0 0 1-.059.028.254.254 0 0 1-.077.01.345.345 0 0 1-.086-.01l-.01-.131a.295.295 0 0 0 .063.007c.036 0 .06-.01.077-.034a.26.26 0 0 0 .04-.088l-.22-.644zm-.71.356l.157-.016a.21.21 0 0 0 .057.125c.028.027.067.04.116.04.051 0 .09-.011.117-.036a.11.11 0 0 0 .04-.084.085.085 0 0 0-.017-.052.143.143 0 0 0-.058-.039 2.076 2.076 0 0 0-.129-.038.416.416 0 0 1-.18-.088.242.242 0 0 1-.073-.18c0-.044.011-.087.034-.126a.222.222 0 0 1 .1-.09.361.361 0 0 1 .156-.03c.1 0 .175.024.226.072.05.05.076.114.079.196l-.16.006c-.007-.044-.023-.077-.045-.096-.022-.02-.056-.03-.102-.03-.046 0-.083.01-.109.033a.065.065 0 0 0-.025.054c0 .02.008.038.023.053.02.019.07.039.148.06.077.02.136.042.172.064a.225.225 0 0 1 .088.09.282.282 0 0 1 .032.141c0 .05-.012.099-.037.143a.231.231 0 0 1-.108.098.407.407 0 0 1-.173.033c-.101 0-.178-.025-.232-.077a.357.357 0 0 1-.097-.226zm-.372-.356v.135h-.104v.26a.88.88 0 0 0 .003.092.04.04 0 0 0 .039.03.177.177 0 0 0 .06-.016l.012.133a.28.28 0 0 1-.12.025.183.183 0 0 1-.074-.015.106.106 0 0 1-.048-.04.17.17 0 0 1-.021-.067.87.87 0 0 1-.005-.12v-.282h-.07v-.135h.07v-.127l.154-.1v.227h.104zm-.42.642h-.154v-.327a.566.566 0 0 0-.01-.134.092.092 0 0 0-.031-.046.083.083 0 0 0-.053-.018.112.112 0 0 0-.07.024.126.126 0 0 0-.044.064.66.66 0 0 0-.011.147v.29h-.154v-.642h.141v.094a.225.225 0 0 1 .284-.085c.028.013.05.03.064.05.014.022.024.045.03.072a.64.64 0 0 1 .008.114v.397zm-.797-.376a.173.173 0 0 0-.035-.11.105.105 0 0 0-.166.002c-.023.026-.033.062-.033.108h.234zm-.01.175l.151.03a.272.272 0 0 1-.092.14.256.256 0 0 1-.16.048c-.101 0-.176-.036-.224-.109a.394.394 0 0 1-.058-.222c0-.106.025-.19.075-.25a.243.243 0 0 1 .192-.09c.087 0 .156.03.206.094.05.063.074.16.072.29h-.389c.002.05.013.088.039.116a.112.112 0 0 0 .089.041.087.087 0 0 0 .061-.02.13.13 0 0 0 .038-.068zm-1.337-.441h.141v.087c.05-.066.11-.1.18-.1a.175.175 0 0 1 .163.102.268.268 0 0 1 .083-.075.184.184 0 0 1 .094-.026c.043 0 .079.009.108.028.03.02.051.047.066.085.011.027.016.07.016.131v.41h-.153v-.366a.29.29 0 0 0-.017-.123.071.071 0 0 0-.065-.036.105.105 0 0 0-.06.021.122.122 0 0 0-.041.064.49.49 0 0 0-.013.133v.307h-.153v-.351a.511.511 0 0 0-.009-.12c-.005-.018-.013-.032-.025-.04a.07.07 0 0 0-.046-.014.107.107 0 0 0-.064.021.119.119 0 0 0-.04.06.56.56 0 0 0-.011.133v.311h-.154v-.642zm-.26.266c-.001-.049-.013-.085-.035-.11a.108.108 0 0 0-.082-.04.105.105 0 0 0-.084.042.158.158 0 0 0-.033.108h.234zm-.01.175l.151.03a.277.277 0 0 1-.093.14.255.255 0 0 1-.16.048c-.1 0-.176-.036-.223-.109a.394.394 0 0 1-.058-.222c0-.106.025-.19.076-.25.05-.06.114-.09.191-.09.087 0 .154.03.205.094.05.063.074.16.072.29h-.388c.001.05.014.088.038.116a.111.111 0 0 0 .09.041.09.09 0 0 0 .061-.02.135.135 0 0 0 .038-.068zm-.896-.132c0 .067.011.117.035.149a.11.11 0 0 0 .09.047.117.117 0 0 0 .094-.048.229.229 0 0 0 .04-.144.246.246 0 0 0-.038-.148.117.117 0 0 0-.094-.048.112.112 0 0 0-.092.048c-.024.03-.035.079-.035.144zm-.138.374l.174.022c.003.024.01.039.02.048.015.012.039.018.07.018a.171.171 0 0 0 .091-.02.08.08 0 0 0 .031-.043.266.266 0 0 0 .007-.077l.001-.094c-.046.07-.104.105-.174.105-.078 0-.14-.037-.185-.11a.395.395 0 0 1-.053-.214c0-.106.023-.188.07-.245a.215.215 0 0 1 .174-.085c.071 0 .13.034.178.104v-.092h.144v.575a.655.655 0 0 1-.017.17.217.217 0 0 1-.048.087.202.202 0 0 1-.082.05.405.405 0 0 1-.13.019c-.099 0-.168-.02-.21-.056a.185.185 0 0 1-.06-.14v-.022zm-.28-.349a.78.78 0 0 1-.095.027.271.271 0 0 0-.083.03.073.073 0 0 0-.03.06c0 .024.007.044.024.062a.08.08 0 0 0 .061.026.124.124 0 0 0 .116-.087.353.353 0 0 0 .007-.083v-.035zm-.21-.137l-.138-.026a.246.246 0 0 1 .082-.139c.038-.03.095-.044.171-.044.069 0 .12.009.154.027.033.017.057.04.07.067.015.027.022.08.022.152l-.002.198c0 .056.002.097.006.124a.35.35 0 0 0 .027.086h-.154l-.015-.05-.005-.018a.273.273 0 0 1-.083.064.224.224 0 0 1-.095.02.184.184 0 0 1-.14-.053.189.189 0 0 1-.052-.136.19.19 0 0 1 .024-.098.16.16 0 0 1 .065-.065.477.477 0 0 1 .123-.04.743.743 0 0 0 .15-.041v-.018c0-.032-.008-.055-.024-.07-.014-.013-.042-.02-.084-.02a.109.109 0 0 0-.065.018.13.13 0 0 0-.038.062zm-.266.445h-.153v-.327a.516.516 0 0 0-.01-.134.096.096 0 0 0-.031-.046.085.085 0 0 0-.053-.018.12.12 0 0 0-.114.089.646.646 0 0 0-.012.146v.29h-.154v-.642h.142v.094a.225.225 0 0 1 .284-.085c.028.013.049.03.063.05.015.022.025.045.03.072a.578.578 0 0 1 .008.114v.397zm-.823-.308a.69.69 0 0 1-.093.027.257.257 0 0 0-.084.03.072.072 0 0 0-.03.06.09.09 0 0 0 .024.062.08.08 0 0 0 .061.026.124.124 0 0 0 .116-.087.353.353 0 0 0 .006-.083v-.035zm-.21-.137l-.137-.026a.246.246 0 0 1 .082-.139.278.278 0 0 1 .171-.044c.07 0 .12.009.154.027.033.017.057.04.071.067.013.027.02.08.02.152l-.002.198a.72.72 0 0 0 .008.124.38.38 0 0 0 .026.086h-.154l-.014-.05-.005-.018a.285.285 0 0 1-.085.064.224.224 0 0 1-.095.02.185.185 0 0 1-.14-.053.189.189 0 0 1-.051-.136c0-.036.008-.069.024-.098a.164.164 0 0 1 .065-.065.508.508 0 0 1 .123-.04.743.743 0 0 0 .15-.041v-.018c0-.032-.009-.055-.023-.07-.015-.013-.043-.02-.085-.02a.107.107 0 0 0-.065.018.13.13 0 0 0-.038.062zm-1.036.445v-.884h.241l.144.603.142-.603h.242v.884h-.149l-.001-.695-.158.695h-.156l-.155-.695v.695h-.15zm-1-.642h.16l.138.456.133-.456h.162l-.205.617-.037.112a.487.487 0 0 1-.039.085.159.159 0 0 1-.1.076.26.26 0 0 1-.077.01.346.346 0 0 1-.087-.01l-.01-.131a.306.306 0 0 0 .064.007c.035 0 .06-.01.077-.034a.26.26 0 0 0 .038-.088l-.218-.644zm-.032 0v.135h-.105v.26a.88.88 0 0 0 .003.092.039.039 0 0 0 .014.022.04.04 0 0 0 .026.009.19.19 0 0 0 .06-.017l.012.133a.277.277 0 0 1-.12.025.175.175 0 0 1-.074-.015.109.109 0 0 1-.048-.04.17.17 0 0 1-.022-.067.87.87 0 0 1-.005-.12v-.282h-.07v-.135h.07v-.127l.154-.1v.227h.105zm-.577.642h.154v-.642h-.154v.642zm0-.727h.154v-.157h-.154v.157zm-.285.727h-.153v-.642h.141v.091a.246.246 0 0 1 .066-.084.117.117 0 0 1 .066-.02c.035 0 .068.011.1.032l-.047.147a.125.125 0 0 0-.071-.027.075.075 0 0 0-.054.02c-.014.012-.027.036-.035.07a1.096 1.096 0 0 0-.013.215v.198zm-.442 0v-.096a.25.25 0 0 1-.083.082.209.209 0 0 1-.214.003.16.16 0 0 1-.068-.08.386.386 0 0 1-.02-.144v-.407h.154v.297c0 .09.002.146.007.167.006.02.016.036.031.048a.086.086 0 0 0 .057.017c.026 0 .05-.007.07-.023a.126.126 0 0 0 .043-.06.785.785 0 0 0 .011-.174v-.272h.153v.642h-.14zm-.501-.45l-.152.03a.128.128 0 0 0-.034-.075.102.102 0 0 0-.07-.025.107.107 0 0 0-.09.044c-.024.029-.035.078-.035.146 0 .076.012.13.035.16a.112.112 0 0 0 .094.048c.03 0 .054-.01.072-.028.02-.02.033-.051.04-.097l.15.03a.313.313 0 0 1-.09.175.255.255 0 0 1-.179.059.254.254 0 0 1-.203-.089.368.368 0 0 1-.076-.246.37.37 0 0 1 .076-.248.257.257 0 0 1 .205-.088c.07 0 .125.017.167.05a.282.282 0 0 1 .09.155zm-.772.074c-.002-.049-.013-.085-.036-.11a.106.106 0 0 0-.166.002.161.161 0 0 0-.032.108h.234zm-.01.175l.15.03a.272.272 0 0 1-.092.14.255.255 0 0 1-.16.048c-.1 0-.176-.036-.224-.109a.4.4 0 0 1-.057-.222c0-.106.025-.19.075-.25a.24.24 0 0 1 .192-.09c.086 0 .154.03.205.094.05.063.074.16.072.29h-.388c.001.05.013.088.037.116a.114.114 0 0 0 .09.041.087.087 0 0 0 .061-.02.13.13 0 0 0 .039-.068zm-1.12-.085l.156-.016c.009.057.028.098.057.125.029.027.067.04.116.04.052 0 .09-.011.117-.036a.108.108 0 0 0 .04-.084.085.085 0 0 0-.017-.052.138.138 0 0 0-.058-.039 1.997 1.997 0 0 0-.128-.038.424.424 0 0 1-.181-.088.245.245 0 0 1-.073-.18c0-.044.011-.087.034-.126a.22.22 0 0 1 .1-.09.356.356 0 0 1 .156-.03c.1 0 .176.024.226.072.05.05.077.114.08.196l-.162.006c-.007-.044-.022-.077-.044-.096-.022-.02-.056-.03-.101-.03a.164.164 0 0 0-.11.033.066.066 0 0 0-.026.054c0 .02.009.038.025.053.02.019.069.039.147.06.078.02.136.042.173.064a.23.23 0 0 1 .088.09.29.29 0 0 1 .03.141c0 .05-.011.099-.037.143a.233.233 0 0 1-.107.098.41.41 0 0 1-.173.033c-.101 0-.178-.025-.232-.077a.354.354 0 0 1-.097-.226zm-.423.286h-.153v-.327a.552.552 0 0 0-.01-.134.092.092 0 0 0-.032-.046.084.084 0 0 0-.052-.018.12.12 0 0 0-.114.089.596.596 0 0 0-.012.146v.29h-.154v-.642h.141v.094c.052-.071.115-.106.191-.106.035 0 .066.006.093.02.028.014.05.03.064.052.015.02.024.044.03.07a.568.568 0 0 1 .008.115v.397zm-1.084-.319c0 .064.014.113.04.146a.126.126 0 0 0 .202 0c.028-.033.041-.082.041-.147 0-.063-.013-.11-.04-.144a.125.125 0 0 0-.101-.05.125.125 0 0 0-.102.05.23.23 0 0 0-.04.145zm-.156-.008c0-.057.012-.112.037-.165a.28.28 0 0 1 .106-.12.296.296 0 0 1 .154-.042c.087 0 .159.031.215.094a.35.35 0 0 1 .083.239.352.352 0 0 1-.084.242.272.272 0 0 1-.213.096.307.307 0 0 1-.151-.04.253.253 0 0 1-.11-.117.421.421 0 0 1-.037-.187zm-.275.327h.153v-.642h-.153v.642zm0-.727h.153v-.157h-.153v.157zm-.102.085v.135h-.105v.26c0 .053 0 .084.003.092a.039.039 0 0 0 .014.022.038.038 0 0 0 .025.009.18.18 0 0 0 .062-.017l.01.133a.277.277 0 0 1-.119.025.173.173 0 0 1-.074-.015.105.105 0 0 1-.048-.04.16.16 0 0 1-.022-.067.87.87 0 0 1-.005-.12v-.282h-.07v-.135h.07v-.127l.154-.1v.227h.105zm-.565.334a.724.724 0 0 1-.094.027.271.271 0 0 0-.083.03.074.074 0 0 0-.03.06.09.09 0 0 0 .023.062.081.081 0 0 0 .062.026c.028 0 .054-.01.08-.03a.106.106 0 0 0 .036-.057.413.413 0 0 0 .006-.083v-.035zm-.21-.137l-.136-.026a.242.242 0 0 1 .081-.139c.038-.03.095-.044.171-.044.069 0 .12.009.154.027.034.017.057.04.07.067.014.027.021.08.021.152l-.002.198c0 .056.002.097.007.124a.35.35 0 0 0 .028.086h-.154c-.005-.011-.01-.027-.016-.05l-.005-.018a.273.273 0 0 1-.083.064.226.226 0 0 1-.095.02.183.183 0 0 1-.14-.053.19.19 0 0 1-.052-.136c0-.036.008-.069.023-.098a.161.161 0 0 1 .067-.065.487.487 0 0 1 .122-.04.733.733 0 0 0 .149-.041v-.018c0-.032-.008-.055-.022-.07-.015-.013-.043-.02-.085-.02a.109.109 0 0 0-.065.018.13.13 0 0 0-.038.062zm-1.11-.197h.141v.087c.05-.066.11-.1.18-.1a.175.175 0 0 1 .163.102.259.259 0 0 1 .082-.075.185.185 0 0 1 .095-.026c.043 0 .079.009.108.028.03.02.051.047.066.085.011.027.016.07.016.131v.41h-.154v-.366a.293.293 0 0 0-.016-.123.072.072 0 0 0-.065-.036.105.105 0 0 0-.06.021.122.122 0 0 0-.04.064.49.49 0 0 0-.014.133v.307h-.153v-.351a.511.511 0 0 0-.009-.12.07.07 0 0 0-.071-.054.107.107 0 0 0-.064.021.114.114 0 0 0-.04.06.492.492 0 0 0-.011.133v.311h-.154v-.642zm-.275.642H9.1v-.642h.142v.091a.238.238 0 0 1 .066-.084.113.113 0 0 1 .065-.02c.035 0 .068.011.1.032l-.047.147a.127.127 0 0 0-.07-.027.078.078 0 0 0-.055.02c-.014.012-.026.036-.035.07a1.182 1.182 0 0 0-.012.215v.198zm-.706-.319c0 .064.014.113.041.146a.126.126 0 0 0 .1.05c.04 0 .074-.017.102-.05.026-.033.04-.082.04-.147a.227.227 0 0 0-.04-.144.125.125 0 0 0-.101-.05.125.125 0 0 0-.101.05.226.226 0 0 0-.041.145zm-.156-.008c0-.057.013-.112.037-.165a.278.278 0 0 1 .26-.162c.087 0 .16.031.215.094a.35.35 0 0 1 .083.239.352.352 0 0 1-.084.242.272.272 0 0 1-.213.096.309.309 0 0 1-.151-.04.253.253 0 0 1-.11-.117.431.431 0 0 1-.037-.187zm-.398-.315h.086v-.048c0-.054.005-.094.016-.12a.131.131 0 0 1 .057-.066.201.201 0 0 1 .105-.025c.043 0 .085.008.127.022l-.02.117a.267.267 0 0 0-.07-.01c-.022 0-.037.006-.047.018-.01.011-.015.034-.015.067v.045h.113v.135h-.113v.507H8.08v-.507h-.086v-.135zm-.09.642h-.155v-.327a.566.566 0 0 0-.009-.134.092.092 0 0 0-.032-.046.085.085 0 0 0-.053-.018.115.115 0 0 0-.07.024.125.125 0 0 0-.044.064.606.606 0 0 0-.011.147v.29h-.154v-.642h.142v.094c.05-.071.113-.106.19-.106a.2.2 0 0 1 .093.02c.028.014.05.03.064.052.014.02.024.044.03.07a.568.568 0 0 1 .009.115v.397zm-.84 0h.161v-.884h-.16v.884z"/>
        </g>
        <path fill="#292929" d="M32.233 18.776c.04-.006.113-.004.22.005l.062.005 1.258.089.03-.413-1.372-.097c-.194-.014-.333-.008-.418.018-.12.036-.184.114-.191.235a.27.27 0 0 0 .043.176c.033.05.088.097.168.145a.497.497 0 0 0-.186.112.232.232 0 0 0-.066.15.28.28 0 0 0 .046.184c.036.056.1.106.19.154l-.224-.027-.03.42 1.925.137.03-.414-1.34-.095h-.034a1.063 1.063 0 0 1-.173-.023c-.059-.016-.086-.042-.084-.079.004-.047.038-.076.101-.084a1.24 1.24 0 0 1 .223.006l.09.007 1.23.087.029-.413-1.259-.09-.062-.002a1.637 1.637 0 0 1-.219-.026c-.062-.015-.092-.042-.09-.082.003-.047.037-.076.103-.085zm.096 1.9l-.15-.028a.631.631 0 0 0-.206-.018c-.034.009-.055.037-.064.082-.011.062-.002.104.026.124a.45.45 0 0 0 .163.048l.037.005.15.029.044-.242zm1.117-.107c.108.11.146.254.114.43-.04.207-.13.343-.273.41-.13.063-.314.072-.552.028l-.553-.103c-.23-.041-.392-.113-.488-.214-.106-.11-.14-.26-.105-.454.037-.196.13-.324.282-.388.138-.057.332-.063.582-.017l.243.045-.123.664.406.076a.537.537 0 0 0 .198.014c.033-.01.055-.044.065-.103.01-.052-.001-.092-.035-.117a.456.456 0 0 0-.178-.06l-.26-.048.074-.4.13.025c.214.04.371.11.473.212zm-.471 1.367c-.02.01-.073.004-.161-.02l-.041-.013-1.013-.268.045-.17-.279-.074-.045.17-.298-.08-.11.415.299.08-.03.108.279.073.028-.108.963.255c.123.033.217.054.283.063.08.012.145.01.192-.004a.222.222 0 0 0 .122-.091.649.649 0 0 0 .08-.198l.055-.204-.3-.08c-.027.087-.05.136-.069.146zm-.403.647a1.096 1.096 0 0 0-.183-.048.481.481 0 0 0-.143-.002.469.469 0 0 0-.14.057 1.144 1.144 0 0 0-.186.135l-.002.002a.835.835 0 0 1-.208.142c-.054.018-.125.012-.217-.02a.223.223 0 0 1-.098-.054.065.065 0 0 1-.013-.069c.007-.021.026-.034.055-.036a.453.453 0 0 1 .176.034l.09.032.133-.387-.094-.032c-.181-.062-.327-.066-.436-.011-.104.051-.181.155-.235.312-.056.162-.055.293.002.393.059.103.185.187.376.252a.68.68 0 0 0 .315.049.818.818 0 0 0 .284-.134l.149-.11a.507.507 0 0 1 .15-.09c.035-.009.094 0 .174.027a.342.342 0 0 1 .129.068c.018.02.023.046.013.075-.01.032-.035.048-.074.051a.702.702 0 0 1-.205-.047l-.109-.038-.134.39.084.028c.202.068.362.08.481.035.116-.044.201-.147.256-.306.063-.181.061-.327-.003-.438-.062-.105-.191-.192-.387-.26zm-.154 1.513a5.654 5.654 0 0 0-.293-.181l-.023-.015-1.188-.705-.156.354 1.221.684-1.344-.404-.154.352 1.552.41.098.023a.602.602 0 0 0 .06.013l.043.014c.031.014.046.036.046.067a.57.57 0 0 1-.057.179l.265.116.13-.3a.555.555 0 0 0 .059-.254.33.33 0 0 0-.07-.19.849.849 0 0 0-.19-.163zm-.8.799a1.428 1.428 0 0 0-.254-.113.671.671 0 0 0-.18-.029 1.04 1.04 0 0 0-.226.019 1.65 1.65 0 0 0-.34.108l-.02.008a.817.817 0 0 1-.21.066.363.363 0 0 1-.18-.058.3.3 0 0 1-.114-.093c-.02-.03-.02-.064 0-.1.02-.036.045-.055.073-.055a.371.371 0 0 1 .156.057l.148.081.2-.366-.076-.042c-.21-.115-.38-.159-.507-.134-.128.024-.239.122-.331.294-.088.16-.106.3-.056.42.053.121.179.236.38.346.136.075.257.11.36.107.069-.003.174-.03.314-.083l.114-.042a1.607 1.607 0 0 1 .328-.09.322.322 0 0 1 .113.023c.046.015.1.039.162.072a.297.297 0 0 1 .116.1.105.105 0 0 1 .002.114c-.022.04-.05.062-.082.062a.432.432 0 0 1-.171-.062l-.245-.134-.198.363.127.07c.212.115.39.164.534.148.155-.017.28-.111.374-.282.086-.16.104-.303.05-.43-.05-.126-.171-.242-.361-.345zm-.917 2.033c-.021.002-.07-.023-.144-.076l-.034-.026-.854-.607.101-.143-.234-.167-.102.142-.251-.178-.249.35.252.178-.066.093.236.166.064-.092.813.578c.102.073.184.126.243.158.07.038.13.06.181.063a.228.228 0 0 0 .146-.042.676.676 0 0 0 .144-.158l.123-.173-.253-.179c-.055.073-.094.11-.116.113zm-1.603-.243c-.12-.043-.218-.018-.295.075a.44.44 0 0 0-.104.213.434.434 0 0 0 .053.247l-.161-.15-.279.334 1.483 1.234.275-.33-1.001-.832-.01-.007a.992.992 0 0 1-.166-.159c-.04-.053-.04-.101-.005-.146.036-.042.077-.054.123-.036a.6.6 0 0 1 .14.1l.043.036 1.031.857.272-.327-1.041-.866c-.157-.13-.276-.212-.358-.243zm-.739 1.667l-.107-.108a.67.67 0 0 0-.16-.13c-.033-.014-.066-.003-.1.03-.044.045-.061.084-.048.117a.46.46 0 0 0 .105.13l.029.027.107.108.174-.174zm.711.105c.153.153.242.3.268.442.027.152-.023.292-.15.419-.15.147-.301.209-.458.183-.142-.023-.298-.12-.47-.291l-.397-.4c-.164-.164-.258-.316-.279-.453-.024-.15.033-.295.171-.432.142-.14.292-.194.453-.16.146.03.309.137.488.316l.174.175-.479.476.293.294a.522.522 0 0 0 .155.124c.031.012.07-.004.111-.047.038-.038.051-.077.038-.116a.435.435 0 0 0-.112-.15l-.188-.188.288-.288.094.096zm-1.763.157c-.106-.064-.207-.057-.302.017a.273.273 0 0 0-.1.152.51.51 0 0 0 .007.222.497.497 0 0 0-.208-.06.234.234 0 0 0-.156.05.284.284 0 0 0-.105.16.496.496 0 0 0 .017.243l-.133-.182-.328.262 1.202 1.51.324-.258-.836-1.05-.023-.027a.866.866 0 0 1-.101-.142c-.028-.054-.028-.092.002-.115.037-.03.08-.024.13.017.03.026.08.082.146.168l.057.07.767.964.323-.257-.784-.987-.04-.047a1.69 1.69 0 0 1-.13-.178c-.032-.057-.033-.098-.002-.123.038-.03.083-.024.133.018.031.026.079.08.145.166l.04.049.785.986.324-.258-.857-1.075c-.121-.153-.22-.25-.297-.295zm-1.482 1.79l-.081-.13a.632.632 0 0 0-.126-.163c-.03-.02-.064-.016-.104.009-.053.033-.077.068-.074.102a.462.462 0 0 0 .075.153l.022.03.08.13.208-.131zm.671.26c.115.183.17.346.163.489-.008.155-.088.28-.24.376-.177.11-.34.137-.486.076-.134-.053-.265-.183-.393-.387l-.3-.478c-.124-.196-.18-.365-.17-.504.008-.151.096-.28.262-.383.168-.106.327-.124.476-.056.136.064.272.202.406.417l.131.209-.573.36.221.35c.056.088.097.14.123.155.03.018.07.011.12-.021.045-.028.067-.064.062-.106a.442.442 0 0 0-.076-.17l-.142-.225.345-.216.071.113zm-1.627.935a.666.666 0 0 0-.073-.179l-.249-.49a.583.583 0 0 0-.095-.154c-.021-.02-.046-.022-.078-.006-.039.02-.058.045-.058.078.002.032.023.089.062.167l.26.514a.56.56 0 0 0 .093.146c.023.02.055.02.093 0 .034-.016.048-.042.045-.076zm.47-.057c.123.241.173.427.154.557-.021.146-.133.27-.336.372-.134.068-.245.093-.333.076-.107-.02-.199-.102-.274-.244l.368-.187a.1.1 0 0 0 .051.05c.03.01.06.008.094-.009.037-.018.055-.044.055-.076.003-.03-.013-.076-.046-.142l-.079-.156a.482.482 0 0 1-.068.165.356.356 0 0 1-.136.114c-.106.053-.203.049-.294-.013a.856.856 0 0 1-.23-.308l-.284-.56c-.082-.163-.121-.293-.115-.388.006-.09.054-.156.146-.204a.386.386 0 0 1 .194-.05.344.344 0 0 1 .177.08l-.039-.156.357-.18.638 1.259zm-1.543.93a.588.588 0 0 0-.053-.181l-.159-.396a.589.589 0 0 0-.107.233.524.524 0 0 0 .053.213.573.573 0 0 0 .1.183c.027.027.068.03.121.009.031-.013.046-.033.045-.062zm.126-.868l.406 1.012-.38.151-.077-.194a.435.435 0 0 1-.071.225.306.306 0 0 1-.14.116c-.097.038-.181.033-.253-.017-.07-.05-.135-.147-.193-.293l-.06-.152c-.052-.128-.071-.225-.057-.292.012-.067.065-.153.159-.258l.106-.1c.063-.056.097-.097.103-.125.008-.034-.006-.098-.044-.191a.564.564 0 0 0-.099-.182c-.025-.026-.055-.03-.095-.015-.045.018-.068.042-.07.071 0 .031.021.1.062.204l.072.18-.363.145-.045-.112c-.08-.203-.103-.368-.066-.498.037-.133.138-.233.304-.3a.6.6 0 0 1 .302-.05.366.366 0 0 1 .209.108c.05.053.1.13.15.23.029.06.072.163.129.31l.011.027zm-1.437-.192c-.075-.103-.171-.137-.288-.103a.43.43 0 0 0-.203.12.422.422 0 0 0-.093.235l-.05-.215-.419.124.55 1.85.41-.122-.37-1.249-.005-.011a1.008 1.008 0 0 1-.05-.223c-.003-.067.022-.108.078-.124.052-.016.093-.004.122.036.018.026.038.08.06.162l.016.053.383 1.287.408-.122-.387-1.299c-.058-.195-.112-.329-.162-.399zm-1.4 1.684l-.084-.419a.573.573 0 0 0-.147.21.538.538 0 0 0 .013.219c.02.101.042.168.065.198.022.032.061.041.117.031.033-.007.051-.024.055-.052a.59.59 0 0 0-.018-.187zm.302-.643l.213 1.068-.4.08-.04-.205a.426.426 0 0 1-.111.208.307.307 0 0 1-.158.09c-.103.02-.186-.002-.247-.063-.06-.062-.106-.17-.137-.324l-.031-.16c-.027-.136-.028-.235-.002-.298.024-.064.092-.139.203-.225l.122-.078c.072-.044.113-.079.125-.105.013-.032.012-.097-.008-.195a.547.547 0 0 0-.065-.198c-.019-.029-.049-.04-.09-.031-.048.009-.075.029-.082.058-.007.03.002.1.024.21l.038.19-.384.077-.023-.119c-.043-.214-.035-.38.024-.5.062-.125.18-.205.355-.24a.594.594 0 0 1 .306.005.364.364 0 0 1 .185.145.89.89 0 0 1 .106.253c.018.064.042.173.072.328l.005.029zm-1.986-.96l.002 1.404-.174-.892-.056-.267-.048-.22-.575.054.219 2.349.382-.036-.164-1.763.371 1.744.27-.025.031-1.782.165 1.763.385-.035-.22-2.349-.588.055zm-2.179 1.87l-.097-1.4-.385-.02.167 1.597.013.1c.004.03.006.049.01.06v.045c0 .035-.016.057-.045.068a.625.625 0 0 1-.188.01l-.015.288.328.016a.582.582 0 0 0 .257-.035.328.328 0 0 0 .152-.134.81.81 0 0 0 .087-.234c.015-.063.037-.176.066-.338l.005-.026.24-1.362-.387-.02-.208 1.385zm-.726-1.712l-.426-.052-.037.306-.112-.014-.035.287.112.013-.12.989a2.675 2.675 0 0 0-.024.288c0 .082.01.145.032.19a.23.23 0 0 0 .106.108.659.659 0 0 0 .208.053l.21.025.037-.307c-.09-.015-.141-.031-.154-.048-.013-.019-.014-.073-.003-.164l.008-.042.126-1.04.174.021.034-.287-.173-.02.037-.306zm-1.505 1.986l.434.077.338-1.896-.434-.077-.338 1.896zm.363-2.037l.434.077.05-.284-.433-.077-.05.284zm-.409.104a.745.745 0 0 0-.193.224l.08-.301-.398-.095-.45 1.875.414.1.177-.741.011-.053c.023-.095.04-.162.053-.2a.44.44 0 0 1 .068-.14.183.183 0 0 1 .106-.072.412.412 0 0 1 .175.012l.155-.648a.26.26 0 0 0-.198.039zm-1.123-.354l-.403 1.237-.02.06a.865.865 0 0 1-.073.186c-.03.047-.07.062-.116.047-.057-.018-.085-.059-.083-.123a.933.933 0 0 1 .05-.209l.009-.018.409-1.255-.408-.132-.405 1.242a7.128 7.128 0 0 0-.073.235c-.02.083-.032.152-.034.21 0 .065.013.12.04.163.03.049.08.085.148.108.092.03.17.036.231.021a.427.427 0 0 0 .192-.126l-.071.185.414.134.597-1.834-.404-.131zm-1.705.833a.635.635 0 0 1-.104.185c-.031.032-.07.039-.114.018a.09.09 0 0 1-.059-.089c0-.037.014-.088.043-.155l.365-.847a.5.5 0 0 1 .085-.153c.025-.02.059-.02.102 0 .035.015.052.038.052.072a.455.455 0 0 1-.048.163l-.083.194.369.16c.096-.222.133-.402.113-.542-.023-.16-.12-.278-.294-.352-.169-.073-.316-.071-.44.006-.115.073-.217.215-.307.424l-.219.508c-.1.231-.14.415-.12.55.021.155.122.272.301.35.18.076.339.06.476-.053.11-.092.216-.254.317-.488l-.348-.15-.087.199zm-1.164-1.315l.216.117.073-.134a.628.628 0 0 0 .08-.19c.003-.036-.016-.064-.058-.086-.055-.03-.097-.035-.125-.014a.442.442 0 0 0-.097.14l-.016.033-.073.134zm-.337.621a.504.504 0 0 0-.075.183c-.001.034.024.066.077.094.048.026.088.026.123.003a.45.45 0 0 0 .111-.15l.127-.233.357.193-.064.118c-.104.19-.22.318-.348.383-.138.068-.286.06-.444-.026-.184-.1-.286-.23-.306-.387-.019-.142.03-.32.145-.531l.27-.496c.111-.204.23-.336.355-.396.137-.067.291-.053.463.04.175.096.269.225.282.389.012.149-.043.335-.164.558l-.118.217-.594-.324-.197.365zm-.398-1.052a1.647 1.647 0 0 0-.077-.347l-.006-.02a.86.86 0 0 1-.047-.217.361.361 0 0 1 .075-.172.293.293 0 0 1 .102-.106c.032-.017.066-.015.1.01.034.022.051.047.048.076a.366.366 0 0 1-.07.15l-.095.14.347.232.048-.071c.133-.2.193-.364.18-.493-.012-.13-.1-.248-.263-.357-.151-.101-.289-.131-.413-.093-.126.041-.252.157-.38.347a.735.735 0 0 0-.139.349c-.003.07.015.176.055.321l.031.117a1.535 1.535 0 0 1 .06.334.323.323 0 0 1-.033.11c-.02.045-.048.097-.086.155a.285.285 0 0 1-.11.107.107.107 0 0 1-.114-.008c-.039-.027-.058-.055-.055-.088a.418.418 0 0 1 .078-.164l.156-.232-.345-.23-.08.12c-.135.202-.2.374-.196.519.002.156.084.288.248.398.15.1.29.13.422.088.13-.04.257-.149.377-.328.061-.093.106-.174.135-.243a.669.669 0 0 0 .045-.176.989.989 0 0 0 .002-.228zm-1.19-1.786a.432.432 0 0 0-.208-.11.422.422 0 0 0-.249.045l.156-.157-.326-.288-1.281 1.442.32.285.865-.973.007-.011c.075-.085.13-.138.164-.161.054-.037.103-.037.146 0 .04.037.052.08.034.124a.627.627 0 0 1-.106.137l-.036.042-.892 1.004.319.282.9-1.014c.134-.152.22-.268.252-.349.049-.118.026-.217-.064-.298zm-2.098.014l.65-.61a.664.664 0 0 0 .134-.15c.012-.03.004-.059-.024-.088-.027-.029-.054-.037-.082-.026a.765.765 0 0 0-.158.126l-.65.61a.59.59 0 0 0-.116.132c-.014.03-.008.058.017.086.029.028.058.037.089.027a.514.514 0 0 0 .14-.107zm.49.124c-.19.178-.355.287-.495.324-.166.047-.31.004-.436-.13-.143-.151-.197-.3-.163-.446.032-.132.142-.286.332-.464l.36-.339c.18-.17.34-.27.477-.299.155-.032.3.02.43.16.121.13.168.268.14.415-.03.143-.13.295-.3.457l-.346.322zm-.305-2.07l-1.492 1.219.278.34 1.493-1.217-.279-.342zm.612.069l-.278-.342-.223.183.278.342.223-.183zm-2.114.576c.004-.023.043-.06.116-.113l.036-.025.848-.616.103.142.233-.17-.104-.141.25-.183-.252-.347-.25.182-.066-.09-.233.168.065.092-.804.587a2.387 2.387 0 0 0-.227.18.454.454 0 0 0-.118.152.23.23 0 0 0-.006.151c.015.052.05.114.104.188l.123.171.252-.183c-.051-.076-.075-.124-.07-.145zm-.184-1.33a.586.586 0 0 0-.249-.064.525.525 0 0 0-.2.088.577.577 0 0 0-.163.13c-.022.033-.018.073.012.122.018.028.04.04.068.033a.627.627 0 0 0 .17-.083l.362-.226zm.344.282l-.924.575-.216-.346.178-.11a.433.433 0 0 1-.234-.03.3.3 0 0 1-.14-.118c-.054-.088-.063-.173-.027-.252.036-.077.121-.159.255-.242l.14-.086c.116-.073.209-.108.277-.107.068 0 .162.038.282.112l.116.086c.067.052.113.078.142.08.035.002.095-.023.18-.076a.56.56 0 0 0 .162-.13c.02-.028.02-.06-.002-.096-.026-.04-.054-.06-.083-.056a.693.693 0 0 0-.19.097l-.163.102-.207-.332.102-.064c.186-.115.345-.167.478-.153.139.014.255.096.348.248.066.105.101.202.104.288a.364.364 0 0 1-.07.224.876.876 0 0 1-.2.187c-.053.04-.148.101-.282.183l-.026.016zm-.068-1.448c.085-.09.102-.19.05-.298a.274.274 0 0 0-.126-.132.5.5 0 0 0-.216-.042.496.496 0 0 0 .105-.19.235.235 0 0 0-.016-.164.291.291 0 0 0-.132-.137.508.508 0 0 0-.241-.038l.208-.089-.182-.378-1.74.835.18.373 1.21-.58.03-.017a.936.936 0 0 1 .162-.067c.058-.015.095-.005.111.028.02.042.005.083-.045.122-.033.025-.098.06-.197.105l-.082.04-1.11.533.178.373L4.99 24.6l.054-.028c.097-.048.165-.077.203-.087.063-.019.103-.01.12.026.02.043.005.085-.047.126a1.364 1.364 0 0 1-.194.104l-.056.026-1.138.546.18.374 1.239-.596c.175-.084.294-.158.354-.223zm-1.742-1.521a2.32 2.32 0 0 1 .197-.065.439.439 0 0 1 .155-.022.18.18 0 0 1 .117.05.404.404 0 0 1 .087.151l.626-.228a.262.262 0 0 0-.141-.143.752.752 0 0 0-.295-.04l.296-.097-.14-.385-1.813.661.146.4.716-.261.05-.021zm-.89-1.027c.011.038.033.06.065.065a.495.495 0 0 0 .174-.029l.858-.24a.684.684 0 0 0 .19-.072c.023-.02.03-.05.018-.09-.01-.036-.03-.057-.06-.06a.745.745 0 0 0-.2.04l-.857.24a.552.552 0 0 0-.164.063c-.026.018-.034.046-.024.083zm.026.43c-.167-.035-.276-.141-.326-.317-.055-.2-.034-.358.064-.471.088-.103.257-.188.507-.258l.476-.133c.24-.067.427-.082.562-.045.154.045.256.158.308.342.047.17.024.314-.07.432-.092.113-.251.202-.477.265l-.455.127c-.25.07-.446.089-.589.059zm1.052-1.485l.282-.057-.043-.213.068-.013c.06-.013.1-.009.12.01.015.014.025.049.033.106l.013.072.275-.056-.037-.181c-.03-.147-.078-.239-.146-.275-.07-.04-.202-.04-.394 0l-.02-.103-.284.057.02.102-1.559.315.085.421 1.56-.316.027.131zm.019-.883c.114-.058.163-.146.148-.267a.44.44 0 0 0-.084-.22.423.423 0 0 0-.216-.13l.22-.015-.054-.433-1.915.237.053.425 1.291-.16.014-.003c.112-.013.188-.017.228-.012.067.008.103.04.11.097.006.055-.012.093-.056.115a.67.67 0 0 1-.17.034l-.055.006-1.332.165.052.422 1.345-.167c.202-.025.343-.056.421-.094zm.43-1.337l-2.353.118-.023-.444 2.353-.118.023.444zM33.523 12.239l-.355.164-.454-.984c-.134.061-.197.227-.192.498.006.26.074.564.203.913l-.375-.077a4.405 4.405 0 0 1-.209-.824 1.248 1.248 0 0 1 .023-.542c-.134-.057-.28-.172-.432-.346a4.597 4.597 0 0 1-.479-.665l.2-.31c.178.325.364.569.555.73.19.163.353.212.487.15l-.433-.94.355-.163 1.106 2.396zm-1.267.816l-.352.162-1.287-2.789.35-.162 1.289 2.789zm-1.89-1.504c-.1-.1-.185-.134-.253-.102-.067.031-.096.117-.087.26.01.16.073.362.185.604.11.238.222.413.335.524.104.1.19.136.256.105.068-.032.097-.12.086-.262-.013-.162-.073-.36-.182-.596a1.87 1.87 0 0 0-.34-.533zm.932 1.376c-.018.253-.11.417-.276.494-.164.076-.349.039-.553-.11-.23-.168-.436-.445-.615-.833-.182-.392-.26-.732-.24-1.017.02-.253.11-.418.275-.494.166-.077.35-.04.555.11.23.17.434.451.616.844.18.388.258.723.238 1.006zm.41-4.373l-1.902 1.552-.332-.406 1.903-1.552.33.406zm-1.84-1.387a.753.753 0 0 0-.397.182.744.744 0 0 0-.254.349.384.384 0 0 0 .072.38.38.38 0 0 0 .355.144.722.722 0 0 0 .396-.176.728.728 0 0 0 .255-.355.38.38 0 0 0-.07-.376.382.382 0 0 0-.358-.148zm.88.661a.984.984 0 0 1-.374.622.975.975 0 0 1-.679.238c-.269-.009-.501-.133-.697-.372-.198-.242-.273-.496-.228-.761a.985.985 0 0 1 .372-.615.993.993 0 0 1 .682-.245c.267.01.5.136.697.377.196.24.272.492.228.756zm-2.686.986l1.345 1.649-.296.242-1.384-1.696c-.106-.13-.16-.241-.16-.336.002-.09.056-.177.158-.26l.56-.458.331.406-.554.453zm.915-3.347l-2.023 2.741-.417-.306 2.024-2.742.416.307zm-2-.188l-.168.228a3.785 3.785 0 0 1-.283.341l.314.231.43-.583-.293-.217zm-1.38 1.091a2.257 2.257 0 0 1-.744-.016l-.018-.388c.296.036.546.018.753-.055.267-.094.509-.289.726-.583l.599-.813-.59-.436.23-.312.997.736-.34.461.293.217.38-.516.418.31-2.023 2.742-.42-.308.751-1.018-.386-.285a1.581 1.581 0 0 1-.626.264zm-.073-3.25l-1.275 3.16-.486-.195 1.274-3.161.487.196zm-2.256.913l.139-.345.398.16.493-1.223.485.196-1.274 3.162-.486-.196.643-1.594-.398-.16zm-.194-1.56l.124-.31.486.196-.124.309.46.186-.142.352-.46-.185-.205.509a2.828 2.828 0 0 0-.229 1.057c0 .273.054.512.162.719l-.39.106a1.51 1.51 0 0 1-.158-.491 1.757 1.757 0 0 1 .034-.663 1.86 1.86 0 0 1-.45.499 1.483 1.483 0 0 1-.478.23l-.174-.333c.226-.07.435-.201.626-.397.223-.228.414-.536.57-.923l.206-.51-.454-.183.142-.352.454.183zm-2.58-.83l-.205 1.574-1.228-.16-.126.968 1.736.226.34-2.614.52.068-.44 3.38-.52-.068.052-.394-1.778-.23c-.157-.022-.271-.07-.342-.145a.356.356 0 0 1-.086-.304l.173-1.324 1.231.161.109-.836-1.231-.161.048-.369 1.747.228zm-4.85 2.916l2.06-.25.046.38-2.121.258c-.166.02-.289.005-.369-.045-.075-.051-.12-.142-.137-.273l-.093-.767.522-.064.091.76zm1.16-3.15l.52-.063.116.96.355-.042.048.4-.354.044.131 1.087-.52.063-.064-.528-2.371.287-.046-.38.422-.052-.078-.636.521-.063.077.636.382-.046c.008-.106.013-.21.013-.312a3.36 3.36 0 0 0-.026-.35l-.051-.431-1.27.153-.047-.385 1.786-.216.084.693c.018.145.027.28.028.404.002.14-.005.268-.022.384l.552-.067-.186-1.54zM11.77 3.726c-.093.138-.117.265-.071.382.044.114.148.19.309.225.182.044.391.018.629-.075.237-.093.409-.218.515-.373.096-.137.122-.262.077-.377-.046-.116-.15-.193-.315-.23-.183-.04-.392-.013-.63.08-.238.092-.409.215-.514.368zm.97 1.488l-.203-.518c-.312.092-.583.11-.812.056a.746.746 0 0 1-.453-.29.615.615 0 0 1-.072-.584c.081-.224.261-.414.538-.569l-.838.33-.135-.348 1.058-.414-.107-.274.485-.19.107.274 1.052-.412.136.346-.845.331c.308-.075.572-.056.792.059.203.105.318.26.342.466a.775.775 0 0 1-.134.52c-.132.194-.343.363-.632.506l.205.52 1.193-.467.137.347-2.867 1.123-.135-.347 1.187-.465zm-4.598.503l.387.536 1.357-.982-.387-.534-1.357.98zm-.494-.683l.274.379 1.358-.982-.275-.378.425-.307 1.1 1.52-.875.632.517.714 1.013-.733.22.305L8.921 7.98l-.22-.305 1.047-.757-.516-.714-.52.376c-.136.098-.254.146-.353.141-.094-.004-.18-.06-.255-.165l-.88-1.216.425-.307zM5.409 8.56l.508.422 1.071-1.288-.508-.422L5.41 8.56zm-.649-.54l.36.299L6.19 7.032l-.36-.3.336-.403L7.609 7.53l-.69.829.677.564.8-.962.29.24-1.963 2.358-.29-.24.828-.993-.678-.565-.41.494c-.107.13-.21.204-.306.224-.093.019-.188-.014-.289-.096l-1.153-.96.335-.403zm.321 4.44c0 .151.042.247.127.288.084.04.183.01.3-.086.131-.108.255-.281.37-.523.115-.245.173-.454.174-.627.002-.153-.039-.249-.122-.288-.085-.04-.187-.012-.304.087-.13.11-.254.289-.37.534-.115.241-.173.446-.175.616zm.478-1.62c.22-.146.421-.176.6-.092.176.086.277.26.301.523.03.293-.05.637-.237 1.032-.187.392-.402.671-.646.834-.218.146-.416.176-.593.092-.179-.084-.283-.258-.31-.52-.028-.294.05-.637.235-1.027.189-.398.405-.678.65-.841zm-.178-.404l-.225.473-.72-.34-.24.508-.34-.16.24-.51-.691-.327.224-.474 1.752.83zm-2.112.096l.34.161-.28.588c.25.118.512.145.786.079.23-.056.444-.166.642-.33l.163.343c-.145.124-.3.23-.466.316a1.579 1.579 0 0 1-.5.178c.08.13.139.296.18.497.037.186.053.375.048.568l-.357.067a1.424 1.424 0 0 0-.152-.704 1.193 1.193 0 0 0-.566-.543l-.272.573-.34-.161.774-1.632z"/>
    </g>
</svg>
