<svg xmlns="http://www.w3.org/2000/svg" width="26" height="36" viewBox="0 0 26 36">
    <path fill="#AAA" fill-rule="evenodd" d="M21.45 14.86s0-2.71-1.925-5.325C18.28 7.843 15.916 6.257 12.9 5.827c-3.53-.504-6.378-.37-6.378-.37H5.226v7.884h1.42V7.496l.273-.028c.227-.025 5.635-.555 9.227 1.846 3.48 2.327 3.45 5.953 3.435 7.695l-.002.274c0 1.115-.005 4.533-.009 6.273h1.88v-8.697zm-2.479 2.423c0 1.115-.007 4.534-.01 6.273h-1.999v-6.68c0-7.203-8.284-6.896-8.284-6.896v3.36H7.254V8.058c1.14-.074 5.589-.214 8.555 1.77 3.205 2.142 3.176 5.543 3.163 7.177l-.001.28zM16.776 30.56l-1.61-5.092h-1.634l-1.642 5.092h1.223l.226-.756.48-1.632.444-1.723h.016l.427 1.566.43 1.417h.005l.113.389.001.002.215.737h1.306zm3.423-5.092h1.363l-1.659 2.286 1.659 2.806h-1.396l-1.42-2.609h-.016v2.61h-1.24v-5.093h1.24v2.18h.016l1.453-2.18zM5.272 30.559v-5.092h1.996l.927 3.463h.017l.985-3.463h1.93v5.092H9.92v-3.927h-.017l-1.14 3.927H7.58l-1.084-3.927H6.48v3.927H5.272zm3.147-7.003v-5.823c.895.106 1.538.399 2.01.832.85.783.837 1.605.837 1.605v3.386h3.193v-3.734a4.74 4.74 0 0 0-1.953-3.815c-1.482-1.051-3.31-1.148-3.31-1.148h-3.97v8.697H8.42zM.04 34.56h25.92V1.44H.04v33.12zm1.134-1.31h23.651V2.75H1.174v30.5z"/>
</svg>
